<?xml version="1.0" encoding="UTF-8"?>
<!DOCTYPE svg PUBLIC "-//W3C//DTD SVG 1.1//EN" "http://www.w3.org/Graphics/SVG/1.1/DTD/svg11.dtd">
<svg xmlns="http://www.w3.org/2000/svg" version="1.1" width="512px" height="512px" style="shape-rendering:geometricPrecision; text-rendering:geometricPrecision; image-rendering:optimizeQuality; fill-rule:evenodd; clip-rule:evenodd" xmlns:xlink="http://www.w3.org/1999/xlink">
<g><path style="opacity:1" fill="#85d561" d="M 70.5,85.5 C 51.5,85.5 32.5,85.5 13.5,85.5C 13.5,68.5 13.5,51.5 13.5,34.5C 32.5,34.5 51.5,34.5 70.5,34.5C 70.5,51.5 70.5,68.5 70.5,85.5 Z"/></g>
<g><path style="opacity:1" fill="#85d561" d="M 245.5,85.5 C 227.5,85.5 209.5,85.5 191.5,85.5C 191.5,68.5 191.5,51.5 191.5,34.5C 209.5,34.5 227.5,34.5 245.5,34.5C 245.5,51.5 245.5,68.5 245.5,85.5 Z"/></g>
<g><path style="opacity:1" fill="#52a534" d="M 392.5,35.5 C 392.5,52.1667 392.5,68.8333 392.5,85.5C 371.167,85.5 349.833,85.5 328.5,85.5C 328.5,81.8333 328.5,78.1667 328.5,74.5C 343.979,61.8639 359.646,49.3639 375.5,37C 381.044,35.5962 386.71,35.0962 392.5,35.5 Z"/></g>
<g><path style="opacity:1" fill="#6bc348" d="M 392.5,35.5 C 407.5,35.5 422.5,35.5 437.5,35.5C 437.5,52.1667 437.5,68.8333 437.5,85.5C 422.5,85.5 407.5,85.5 392.5,85.5C 392.5,68.8333 392.5,52.1667 392.5,35.5 Z"/></g>
<g><path style="opacity:1" fill="#52a534" d="M 450.5,35.5 C 466.833,35.5 483.167,35.5 499.5,35.5C 499.834,51.8389 500,68.1723 500,84.5C 483.577,85.4916 467.077,85.8249 450.5,85.5C 450.5,68.8333 450.5,52.1667 450.5,35.5 Z"/></g>
<g><path style="opacity:1" fill="#6bc348" d="M 328.5,74.5 C 328.5,78.1667 328.5,81.8333 328.5,85.5C 324.167,85.5 319.833,85.5 315.5,85.5C 319.515,81.4874 323.848,77.8207 328.5,74.5 Z"/></g>
<g><path style="opacity:1" fill="#52a534" d="M 13.5,85.5 C 32.5,85.5 51.5,85.5 70.5,85.5C 70.5,106.833 70.5,128.167 70.5,149.5C 51.5,149.5 32.5,149.5 13.5,149.5C 13.5,128.167 13.5,106.833 13.5,85.5 Z"/></g>
<g><path style="opacity:1" fill="#3c8526" d="M 191.5,85.5 C 209.5,85.5 227.5,85.5 245.5,85.5C 245.5,106.833 245.5,128.167 245.5,149.5C 227.5,149.5 209.5,149.5 191.5,149.5C 191.5,128.167 191.5,106.833 191.5,85.5 Z"/></g>
<g><path style="opacity:1" fill="#52a534" d="M 315.5,85.5 C 319.833,85.5 324.167,85.5 328.5,85.5C 328.5,102.167 328.5,118.833 328.5,135.5C 326.897,136.596 325.397,137.93 324,139.5C 323.502,142.817 323.335,146.15 323.5,149.5C 305.833,149.5 288.167,149.5 270.5,149.5C 270.334,139.828 270.5,130.161 271,120.5C 285.621,108.454 300.455,96.7878 315.5,85.5 Z"/></g>
<g><path style="opacity:1" fill="#6bc348" d="M 328.5,85.5 C 349.833,85.5 371.167,85.5 392.5,85.5C 371.477,102.518 350.144,119.184 328.5,135.5C 328.5,118.833 328.5,102.167 328.5,85.5 Z"/></g>
<g><path style="opacity:1" fill="#4f311f" d="M 13.5,149.5 C 32.5,149.5 51.5,149.5 70.5,149.5C 70.5,150.833 70.5,152.167 70.5,153.5C 51.5,153.5 32.5,153.5 13.5,153.5C 13.5,152.167 13.5,150.833 13.5,149.5 Z"/></g>
<g><path style="opacity:1" fill="#4f311f" d="M 191.5,149.5 C 209.5,149.5 227.5,149.5 245.5,149.5C 245.5,150.833 245.5,152.167 245.5,153.5C 227.5,153.5 209.5,153.5 191.5,153.5C 191.5,152.167 191.5,150.833 191.5,149.5 Z"/></g>
<g><path style="opacity:1" fill="#6bc348" d="M 270.5,149.5 C 288.167,149.5 305.833,149.5 323.5,149.5C 323.5,170.833 323.5,192.167 323.5,213.5C 305.833,213.5 288.167,213.5 270.5,213.5C 270.5,192.167 270.5,170.833 270.5,149.5 Z"/></g>
<g><path style="opacity:1" fill="#65402b" d="M 13.5,153.5 C 32.5,153.5 51.5,153.5 70.5,153.5C 70.5,173.5 70.5,193.5 70.5,213.5C 51.5,213.5 32.5,213.5 13.5,213.5C 13.5,193.5 13.5,173.5 13.5,153.5 Z"/></g>
<g><path style="opacity:1" fill="#65402b" d="M 191.5,153.5 C 209.5,153.5 227.5,153.5 245.5,153.5C 245.5,173.5 245.5,193.5 245.5,213.5C 227.5,213.5 209.5,213.5 191.5,213.5C 173.167,213.5 154.833,213.5 136.5,213.5C 136.5,210.167 136.5,206.833 136.5,203.5C 154.17,194.668 172.17,186.335 190.5,178.5C 191.498,170.193 191.831,161.86 191.5,153.5 Z"/></g>
<g><path style="opacity:1" fill="#988f8a" d="M 136.5,203.5 C 136.5,206.833 136.5,210.167 136.5,213.5C 129.167,213.5 121.833,213.5 114.5,213.5C 121.516,209.6 128.849,206.267 136.5,203.5 Z"/></g>
<g><path style="opacity:1" fill="#966745" d="M 13.5,213.5 C 32.5,213.5 51.5,213.5 70.5,213.5C 70.5,219.833 70.5,226.167 70.5,232.5C 70.5,247.5 70.5,262.5 70.5,277.5C 51.5,277.5 32.5,277.5 13.5,277.5C 13.5,256.167 13.5,234.833 13.5,213.5 Z"/></g>
<g><path style="opacity:1" fill="#644029" d="M 114.5,213.5 C 121.833,213.5 129.167,213.5 136.5,213.5C 136.5,214.833 136.5,216.167 136.5,217.5C 126.167,217.5 115.833,217.5 105.5,217.5C 108.088,215.375 111.088,214.042 114.5,213.5 Z"/></g>
<g><path style="opacity:1" fill="#966745" d="M 136.5,213.5 C 154.833,213.5 173.167,213.5 191.5,213.5C 191.5,219.167 191.5,224.833 191.5,230.5C 173.041,238.896 154.708,247.563 136.5,256.5C 136.5,243.5 136.5,230.5 136.5,217.5C 136.5,216.167 136.5,214.833 136.5,213.5 Z"/></g>
<g><path style="opacity:1" fill="#ac7a53" d="M 191.5,213.5 C 209.5,213.5 227.5,213.5 245.5,213.5C 245.5,234.833 245.5,256.167 245.5,277.5C 227.5,277.5 209.5,277.5 191.5,277.5C 191.5,261.833 191.5,246.167 191.5,230.5C 191.5,224.833 191.5,219.167 191.5,213.5 Z"/></g>
<g><path style="opacity:1" fill="#4f311f" d="M 270.5,213.5 C 288.167,213.5 305.833,213.5 323.5,213.5C 323.5,214.833 323.5,216.167 323.5,217.5C 305.833,217.5 288.167,217.5 270.5,217.5C 270.5,216.167 270.5,214.833 270.5,213.5 Z"/></g>
<g><path style="opacity:1" fill="#966745" d="M 456.5,214.5 C 456.5,215.5 456.5,216.5 456.5,217.5C 456.5,237.5 456.5,257.5 456.5,277.5C 451.833,277.5 447.167,277.5 442.5,277.5C 442.5,273.5 442.5,269.5 442.5,265.5C 421.833,265.5 401.167,265.5 380.5,265.5C 380.5,248.5 380.5,231.5 380.5,214.5C 405.833,214.5 431.167,214.5 456.5,214.5 Z"/></g>
<g><path style="opacity:1" fill="#4f311f" d="M 456.5,214.5 C 469.833,214.5 483.167,214.5 496.5,214.5C 496.5,215.5 496.5,216.5 496.5,217.5C 483.167,217.5 469.833,217.5 456.5,217.5C 456.5,216.5 456.5,215.5 456.5,214.5 Z"/></g>
<g><path style="opacity:1" fill="#7f5438" d="M 105.5,217.5 C 115.833,217.5 126.167,217.5 136.5,217.5C 136.5,230.5 136.5,243.5 136.5,256.5C 121.625,263.771 106.625,270.771 91.5,277.5C 84.5,277.5 77.5,277.5 70.5,277.5C 70.5,262.5 70.5,247.5 70.5,232.5C 82.0506,227.225 93.7173,222.225 105.5,217.5 Z"/></g>
<g><path style="opacity:1" fill="#65402b" d="M 270.5,217.5 C 288.167,217.5 305.833,217.5 323.5,217.5C 322.513,237.424 322.179,257.424 322.5,277.5C 305.167,277.5 287.833,277.5 270.5,277.5C 270.5,257.5 270.5,237.5 270.5,217.5 Z"/></g>
<g><path style="opacity:1" fill="#65402b" d="M 456.5,217.5 C 469.833,217.5 483.167,217.5 496.5,217.5C 496.5,258.833 496.5,300.167 496.5,341.5C 483.167,341.5 469.833,341.5 456.5,341.5C 451.833,341.5 447.167,341.5 442.5,341.5C 442.5,320.167 442.5,298.833 442.5,277.5C 447.167,277.5 451.833,277.5 456.5,277.5C 456.5,257.5 456.5,237.5 456.5,217.5 Z"/></g>
<g><path style="opacity:1" fill="#65402a" d="M 13.5,277.5 C 32.5,277.5 51.5,277.5 70.5,277.5C 77.5,277.5 84.5,277.5 91.5,277.5C 84.6906,281.07 77.6906,284.403 70.5,287.5C 70.5,285.5 70.5,283.5 70.5,281.5C 51.5,281.5 32.5,281.5 13.5,281.5C 13.5,280.167 13.5,278.833 13.5,277.5 Z"/></g>
<g><path style="opacity:1" fill="#966745" d="M 191.5,277.5 C 209.5,277.5 227.5,277.5 245.5,277.5C 245.5,298.833 245.5,320.167 245.5,341.5C 227.5,341.5 209.5,341.5 191.5,341.5C 191.5,320.167 191.5,298.833 191.5,277.5 Z"/></g>
<g><path style="opacity:1" fill="#7f5538" d="M 270.5,277.5 C 287.833,277.5 305.167,277.5 322.5,277.5C 322.5,298.833 322.5,320.167 322.5,341.5C 305.167,341.5 287.833,341.5 270.5,341.5C 270.5,320.167 270.5,298.833 270.5,277.5 Z"/></g>
<g><path style="opacity:1" fill="#7f5438" d="M 13.5,281.5 C 32.5,281.5 51.5,281.5 70.5,281.5C 70.5,283.5 70.5,285.5 70.5,287.5C 70.5,305.5 70.5,323.5 70.5,341.5C 51.5,341.5 32.5,341.5 13.5,341.5C 13.5,321.5 13.5,301.5 13.5,281.5 Z"/></g>
<g><path style="opacity:1" fill="#ac7a53" d="M 13.5,341.5 C 32.5,341.5 51.5,341.5 70.5,341.5C 70.5,362.833 70.5,384.167 70.5,405.5C 51.5,405.5 32.5,405.5 13.5,405.5C 13.5,384.167 13.5,362.833 13.5,341.5 Z"/></g>
<g><path style="opacity:1" fill="#4f311f" d="M 191.5,341.5 C 209.5,341.5 227.5,341.5 245.5,341.5C 245.5,342.833 245.5,344.167 245.5,345.5C 227.5,345.5 209.5,345.5 191.5,345.5C 191.5,344.167 191.5,342.833 191.5,341.5 Z"/></g>
<g><path style="opacity:1" fill="#988f8a" d="M 270.5,341.5 C 287.833,341.5 305.167,341.5 322.5,341.5C 322.5,362.833 322.5,384.167 322.5,405.5C 305.167,405.5 287.833,405.5 270.5,405.5C 270.5,384.167 270.5,362.833 270.5,341.5 Z"/></g>
<g><path style="opacity:1" fill="#966745" d="M 442.5,341.5 C 447.167,341.5 451.833,341.5 456.5,341.5C 456.5,361.833 456.5,382.167 456.5,402.5C 455.101,403.89 453.434,404.89 451.5,405.5C 431.833,405.5 412.167,405.5 392.5,405.5C 392.5,398.833 392.5,392.167 392.5,385.5C 409.021,374.647 425.521,363.647 442,352.5C 442.499,348.848 442.665,345.182 442.5,341.5 Z"/></g>
<g><path style="opacity:1" fill="#7f5538" d="M 456.5,341.5 C 469.833,341.5 483.167,341.5 496.5,341.5C 496.667,353.505 496.5,365.505 496,377.5C 482.89,385.969 469.723,394.302 456.5,402.5C 456.5,382.167 456.5,361.833 456.5,341.5 Z"/></g>
<g><path style="opacity:1" fill="#65402b" d="M 191.5,345.5 C 209.5,345.5 227.5,345.5 245.5,345.5C 245.5,365.5 245.5,385.5 245.5,405.5C 227.5,405.5 209.5,405.5 191.5,405.5C 191.5,385.5 191.5,365.5 191.5,345.5 Z"/></g>
<g><path style="opacity:1" fill="#7f5538" d="M 392.5,385.5 C 392.5,392.167 392.5,398.833 392.5,405.5C 382.167,405.5 371.833,405.5 361.5,405.5C 371.627,398.598 381.96,391.931 392.5,385.5 Z"/></g>
<g><path style="opacity:1" fill="#7f5538" d="M 13.5,405.5 C 32.5,405.5 51.5,405.5 70.5,405.5C 70.5,426.833 70.5,448.167 70.5,469.5C 51.5,469.5 32.5,469.5 13.5,469.5C 13.5,448.167 13.5,426.833 13.5,405.5 Z"/></g>
<g><path style="opacity:1" fill="#ac7a53" d="M 191.5,405.5 C 209.5,405.5 227.5,405.5 245.5,405.5C 245.5,426.833 245.5,448.167 245.5,469.5C 230.5,469.5 215.5,469.5 200.5,469.5C 197.5,469.5 194.5,469.5 191.5,469.5C 191.5,448.167 191.5,426.833 191.5,405.5 Z"/></g>
<g><path style="opacity:1" fill="#754d33" d="M 270.5,405.5 C 287.833,405.5 305.167,405.5 322.5,405.5C 322.5,406.833 322.5,408.167 322.5,409.5C 305.167,409.5 287.833,409.5 270.5,409.5C 270.5,408.167 270.5,406.833 270.5,405.5 Z"/></g>
<g><path style="opacity:1" fill="#ac7a53" d="M 361.5,405.5 C 371.833,405.5 382.167,405.5 392.5,405.5C 392.5,406.833 392.5,408.167 392.5,409.5C 392.5,420.833 392.5,432.167 392.5,443.5C 379.039,452.403 365.372,461.069 351.5,469.5C 346.167,469.5 340.833,469.5 335.5,469.5C 335.333,453.497 335.5,437.497 336,421.5C 344.136,415.52 352.636,410.187 361.5,405.5 Z"/></g>
<g><path style="opacity:1" fill="#644029" d="M 392.5,405.5 C 412.167,405.5 431.833,405.5 451.5,405.5C 449.795,407.192 447.795,408.525 445.5,409.5C 427.833,409.5 410.167,409.5 392.5,409.5C 392.5,408.167 392.5,406.833 392.5,405.5 Z"/></g>
<g><path style="opacity:1" fill="#966645" d="M 270.5,409.5 C 287.833,409.5 305.167,409.5 322.5,409.5C 322.5,429.5 322.5,449.5 322.5,469.5C 305.167,469.5 287.833,469.5 270.5,469.5C 270.5,449.5 270.5,429.5 270.5,409.5 Z"/></g>
<g><path style="opacity:1" fill="#7f5438" d="M 392.5,409.5 C 410.167,409.5 427.833,409.5 445.5,409.5C 428.039,421.069 410.373,432.402 392.5,443.5C 392.5,432.167 392.5,420.833 392.5,409.5 Z"/></g>
<g><path style="opacity:1" fill="#4f311f" d="M 13.5,469.5 C 32.5,469.5 51.5,469.5 70.5,469.5C 70.5,470.833 70.5,472.167 70.5,473.5C 51.5,473.5 32.5,473.5 13.5,473.5C 13.5,472.167 13.5,470.833 13.5,469.5 Z"/></g>
<g><path style="opacity:1" fill="#988f8a" d="M 191.5,469.5 C 194.5,469.5 197.5,469.5 200.5,469.5C 200.5,472.833 200.5,476.167 200.5,479.5C 197.5,479.5 194.5,479.5 191.5,479.5C 191.5,476.167 191.5,472.833 191.5,469.5 Z"/></g>
<g><path style="opacity:1" fill="#7f5538" d="M 200.5,469.5 C 215.5,469.5 230.5,469.5 245.5,469.5C 245.5,472.833 245.5,476.167 245.5,479.5C 230.5,479.5 215.5,479.5 200.5,479.5C 200.5,476.167 200.5,472.833 200.5,469.5 Z"/></g>
<g><path style="opacity:1" fill="#7f5538" d="M 270.5,469.5 C 287.833,469.5 305.167,469.5 322.5,469.5C 322.5,472.833 322.5,476.167 322.5,479.5C 305.167,479.5 287.833,479.5 270.5,479.5C 270.5,476.167 270.5,472.833 270.5,469.5 Z"/></g>
<g><path style="opacity:1" fill="#64402b" d="M 13.5,473.5 C 32.5,473.5 51.5,473.5 70.5,473.5C 70.5,475.5 70.5,477.5 70.5,479.5C 51.5,479.5 32.5,479.5 13.5,479.5C 13.5,477.5 13.5,475.5 13.5,473.5 Z"/></g>
<g><path style="opacity:1" fill="#885b3e" d="M 335.5,469.5 C 340.833,469.5 346.167,469.5 351.5,469.5C 346.738,473.058 341.738,476.391 336.5,479.5C 335.513,476.232 335.18,472.898 335.5,469.5 Z"/></g>
</svg>
